#!OML:ASF I:\golf\golf\golf 2\Subject 1\2002-09-07\Subject1.ASF
:FULLY-SPECIFIED
:DEGREES
189
root -6.01678 18.0397 3.66675 5.55785 32.7531 -6.82002
lowerback -0.387949 -10.8582 -15.9849
upperback -2.4774 -14.4048 -4.15255
thorax 0.299424 -6.94744 3.736
lowerneck -5.69457 22.411 0.816613
upperneck 9.75686 32.098 -13.9035
head 6.33807 14.7629 -1.57257
rclavicle 1.07741e-013 1.11319e-013
rhumerus 28.9556 -26.0848 -60.6476
rradius 109.124
rwrist 4.59245
rhand -61.6654 28.1341
rfingers 7.12502
rthumb -33.7359 1.29211
lclavicle 1.07741e-013 1.11319e-013
lhumerus 114.47 -41.2582 42.624
lradius 37.6786
lwrist -2.03217
lhand -26.8202 -3.89983
lfingers 7.12502
lthumb -180.246 -153.92
rfemur -25.9511 17.5137 24.6059
rtibia 28.7936
rfoot -2.42766 25.7526
rtoes 31.826
lfemur 2.0143 15.7803 3.64708
ltibia 31.0217
lfoot 18.0136 13.5977
ltoes -32.5705
190
root -6.01503 18.0441 3.65365 5.56105 32.7572 -6.87869
lowerback -0.267447 -10.955 -15.9213
upperback -2.40416 -14.5517 -4.01508
thorax 0.359725 -7.03032 3.84058
lowerneck -6.30424 22.5139 0.187611
upperneck 9.84979 32.2991 -13.7571
head 6.36056 14.8065 -1.39314
rclavicle -6.63941e-014 -2.54444e-014
rhumerus 29.433 -25.8043 -60.637
rradius 108.894
rwrist 4.50276
rhand -62.0195 27.3977
rfingers 7.12502
rthumb -34.0722 0.629968
lclavicle -6.63941e-014 -2.54444e-014
lhumerus 114.212 -40.7961 42.8699
lradius 37.6197
lwrist -2.20931
lhand -26.8842 -3.95434
lfingers 7.12502
lthumb -180.308 -153.975
rfemur -25.9722 17.5781 24.6101
rtibia 28.7202
rfoot -2.77367 25.6369
rtoes 30.7826
lfemur 1.87166 15.8888 3.68149
ltibia 31.1339
lfoot 18.2576 13.1404
ltoes -33.2907
191
root -6.01648 18.048 3.64018 5.50397 32.7339 -6.97588
lowerback -0.141299 -10.9221 -15.9002
upperback -2.38287 -14.5333 -4.00309
thorax 0.308276 -7.01979 3.86932
lowerneck -6.28623 22.5353 0.178581
upperneck 9.91287 32.3389 -13.7506
head 6.37856 14.8206 -1.38448
rclavicle -1.98785e-014 -5.08889e-014
rhumerus 29.4304 -25.7934 -60.5022
rradius 108.817
rwrist 4.59124
rhand -62.3302 24.8215
rfingers 7.12502
rthumb -34.3673 -1.87997
lclavicle -1.98785e-014 -5.08889e-014
lhumerus 114.101 -40.7792 42.9651
lradius 37.5869
lwrist -2.0483
lhand -26.8247 -3.91845
lfingers 7.12502
lthumb -180.251 -153.939
rfemur -25.9428 17.6573 24.6729
rtibia 28.6157
rfoot -2.85722 25.5148
rtoes 30.2015
lfemur 1.79311 16.0386 3.79236
ltibia 31.2451
lfoot 18.3922 12.6976
ltoes -33.8065
192
root -6.01947 18.0481 3.62633 5.49558 32.7354 -7.02512
lowerback -0.062356 -10.854 -15.944
upperback -2.37779 -14.4586 -4.059
thorax 0.252169 -6.97816 3.85934
lowerneck -5.99848 22.495 0.433212
upperneck 9.90488 32.2646 -13.8351
head 6.37783 14.8036 -1.4652
rclavicle -6.44062e-014 2.22639e-014
rhumerus 29.2482 -25.9384 -60.4624
rradius 108.866
rwrist 3.98154
rhand -61.959 25.2136
rfingers 7.12502
rthumb -34.0148 -1.5669
lclavicle -6.44062e-014 2.22639e-014
lhumerus 113.999 -41.049 43.0538
lradius 37.4474
lwrist -1.93263
lhand -27.0369 -4.07675
lfingers 7.12502
lthumb -180.456 -154.097
rfemur -25.9664 17.7421 24.678
rtibia 28.4896
rfoot -2.52925 25.3881
rtoes 30.5425
lfemur 1.69003 16.296 3.89982
ltibia 31.3556
lfoot 18.4028 12.2341
ltoes -34.051
193
root -6.02171 18.0461 3.60969 5.50311 32.7721 -7.08033
lowerback 0.00898248 -10.8309 -15.9422
upperback -2.35652 -14.4406 -4.06688
thorax 0.230135 -6.96885 3.86521
lowerneck -5.94257 22.483 0.403505
upperneck 9.9284 32.2504 -13.8346
head 6.37115 14.7969 -1.47048
rclavicle -6.36111e-015 -6.36111e-014
rhumerus 29.2612 -25.962 -60.5427
rradius 108.843
rwrist 2.84305
rhand -61.4332 27.7859
rfingers 7.12502
rthumb -33.5152 0.8958
lclavicle -6.36111e-015 -6.36111e-014
lhumerus 113.909 -41.168 43.2392
lradius 37.2063
lwrist -1.95892
lhand -26.9836 -4.00785
lfingers 7.12502
lthumb -180.404 -154.028
rfemur -26.0318 17.8418 24.6618
rtibia 28.3581
rfoot -2.10051 25.2501
rtoes 31.344
lfemur 1.55122 16.4847 3.97167
ltibia 31.486
lfoot 18.3514 11.8205
ltoes -34.3123
194
root -6.02587 18.0453 3.5892 5.45472 32.837 -7.20945
lowerback 0.123725 -10.7593 -15.8936
upperback -2.32496 -14.3668 -4.10265
thorax 0.167628 -6.93045 3.83645
lowerneck -5.79403 22.4622 0.529987
upperneck 9.93692 32.209 -13.8473
head 6.36829 14.7879 -1.50434
rclavicle 9.85972e-014 6.67916e-014
rhumerus 29.1312 -25.9672 -60.5195
rradius 108.7
rwrist 2.08638
rhand -61.4878 28.9595
rfingers 7.12502
rthumb -33.5671 2.08064
lclavicle 9.85972e-014 6.67916e-014
lhumerus 114.012 -41.327 43.286
lradius 37.0405
lwrist -1.98251
lhand -26.3998 -3.43324
lfingers 7.12502
lthumb -179.84 -153.454
rfemur -26.108 17.9793 24.6984
rtibia 28.2722
rfoot -1.64117 25.0141
rtoes 32.2396
lfemur 1.4054 16.5598 4.06685
ltibia 31.5987
lfoot 18.3289 11.4256
ltoes -34.8538
195
root -6.03086 18.0496 3.56565 5.43779 32.9398 -7.31339
lowerback 0.193065 -10.5602 -15.8326
upperback -2.32695 -14.1175 -4.3294
thorax 0.0117471 -6.79589 3.62682
lowerneck -5.08667 22.2773 1.419
upperneck 9.88954 31.9005 -14.0717
head 6.38798 14.6971 -1.74293
rclavicle -3.22031e-014 -3.18055e-014
rhumerus 28.3939 -26.2637 -60.3472
rradius 108.57
rwrist 1.63643
rhand -61.7156 28.5573
rfingers 7.12502
rthumb -33.7836 1.72576
lclavicle -3.22031e-014 -3.18055e-014
lhumerus 114.216 -41.9631 43.0046
lradius 37.072
lwrist -1.84472
lhand -25.8398 -2.92329
lfingers 7.12502
lthumb -179.3 -152.945
rfemur -26.2171 17.9474 24.7337
rtibia 28.2507
rfoot -1.71137 24.8743
rtoes 31.5691
lfemur 1.22462 16.6405 4.11371
ltibia 31.6546
lfoot 18.1942 11.2978
ltoes -35.1543
196
root -6.03472 18.0576 3.5442 5.5734 33.0314 -7.26309
lowerback 0.154022 -10.4543 -15.9205
upperback -2.24546 -13.9574 -4.4421
thorax 0.0843148 -6.72217 3.55431
lowerneck -5.03451 22.1662 1.79079
upperneck 10.0009 31.7688 -14.2058
head 6.48363 14.6299 -1.81647
rclavicle -1.77713e-013 -6.67916e-014
rhumerus 28.1462 -26.4538 -60.4016
rradius 108.458
rwrist 1.00662
rhand -61.599 27.6968
rfingers 7.12502
rthumb -33.6728 0.840952
lclavicle -1.77713e-013 -6.67916e-014
lhumerus 114.693 -41.7879 42.4666
lradius 36.982
lwrist -1.22964
lhand -25.4074 -2.59218
lfingers 7.12502
lthumb -178.882 -152.615
rfemur -26.3933 17.8014 24.6278
rtibia 28.2682
rfoot -2.2502 24.8526
rtoes 29.7674
lfemur 1.01664 16.7262 3.97482
ltibia 31.6641
lfoot 17.8089 11.5141
ltoes -34.8636
197
root -6.03796 18.0593 3.52227 5.67783 33.0989 -7.18937
lowerback 0.2486 -10.6839 -16.1843
upperback -2.1251 -14.2668 -4.07901
thorax 0.367762 -6.8984 4.00456
lowerneck -6.02129 22.4689 0.506227
upperneck 10.1122 32.2846 -13.9812
head 6.48739 14.7834 -1.48603
rclavicle 1.07741e-013 -6.36111e-015
rhumerus 29.2268 -25.7071 -60.8977
rradius 108.146
rwrist 0.377477
rhand -61.4389 26.8404
rfingers 7.12502
rthumb -33.5206 -0.0484908
lclavicle 1.07741e-013 -6.36111e-015
lhumerus 114.414 -40.4891 42.7281
lradius 36.5665
lwrist -1.15527
lhand -25.1172 -2.18858
lfingers 7.12502
lthumb -178.602 -152.213
rfemur -26.5613 17.8656 24.4613
rtibia 28.3156
rfoot -2.46486 24.6604
rtoes 29.1912
lfemur 0.901107 16.7596 3.81329
ltibia 31.6445
lfoot 17.3473 11.7464
ltoes -34.4207
198
root -6.04066 18.0562 3.49354 5.64501 33.2045 -7.24664
lowerback 0.377701 -10.6684 -16.1705
upperback -2.05139 -14.2651 -4.06904
thorax 0.375286 -6.90208 4.02561
lowerneck -6.10369 22.5264 0.285018
upperneck 10.1339 32.3538 -13.8135
head 6.44974 14.816 -1.41283
rclavicle -1.73738e-013 -7.63333e-014
rhumerus 29.3014 -25.4935 -61.113
rradius 107.822
rwrist -0.242818
rhand -61.4875 26.7441
rfingers 7.12502
rthumb -33.5668 -0.13475
lclavicle -1.73738e-013 -7.63333e-014
lhumerus 113.82 -40.9211 43.2231
lradius 36.3827
lwrist -2.11399
lhand -24.7001 -1.74005
lfingers 7.12502
lthumb -178.199 -151.768
rfemur -26.6963 18.0619 24.3852
rtibia 28.3669
rfoot -2.39994 24.3581
rtoes 29.5193
lfemur 0.835679 16.7554 3.78435
ltibia 31.6105
lfoot 16.962 11.8849
ltoes -34.1266
199
root -6.04553 18.0561 3.46345 5.5968 33.3861 -7.31481
lowerback 0.543684 -10.691 -16.1936
upperback -1.93225 -14.316 -4.00413
thorax 0.44368 -6.93802 4.11358
lowerneck -6.3282 22.5559 -0.0622537
upperneck 10.1075 32.4014 -13.7097
head 6.41013 14.8258 -1.33514
rclavicle 3.97569e-014 4.45278e-014
rhumerus 29.532 -25.1545 -61.3807
rradius 107.44
rwrist -0.944615
rhand -61.5559 27.5167
rfingers 7.12502
rthumb -33.6318 0.651979
lclavicle 3.97569e-014 4.45278e-014
lhumerus 113.115 -41.2245 43.7875
lradius 36.3019
lwrist -2.70172
lhand -24.1097 -1.30432
lfingers 7.12502
lthumb -177.629 -151.338
rfemur -26.7775 18.1804 24.3377
rtibia 28.3671
rfoot -2.65954 24.0394
rtoes 28.7581
lfemur 0.740451 16.8186 3.78776
ltibia 31.6036
lfoot 16.5938 11.709
ltoes -34.2931
200
root -6.05206 18.0533 3.43411 5.57837 33.579 -7.2755
lowerback 0.736406 -10.6758 -16.3836
upperback -1.83446 -14.3247 -3.96147
thorax 0.498269 -6.94839 4.26964
lowerneck -6.45533 22.485 -0.11304
upperneck 10.2433 32.346 -13.7404
head 6.4687 14.7765 -1.32192
rclavicle -2.50469e-014 4.45278e-014
rhumerus 29.6172 -24.895 -61.636
rradius 107.062
rwrist -1.4553
rhand -61.5823 27.6508
rfingers 7.12502
rthumb -33.6569 0.791532
lclavicle -2.50469e-014 4.45278e-014
lhumerus 113.062 -40.9569 43.7603
lradius 35.9964
lwrist -2.33007
lhand -23.7292 -1.00318
lfingers 7.12502
lthumb -177.261 -151.041
rfemur -26.7944 18.2964 24.2076
rtibia 28.3105
rfoot -3.01112 23.6545
rtoes 27.5884
lfemur 0.655875 16.9572 3.71096
ltibia 31.6575
lfoot 16.1182 11.3247
ltoes -34.8824
201
root -6.05896 18.0484 3.40295 5.6311 33.7601 -7.27925
lowerback 0.860844 -10.6299 -16.4308
upperback -1.81476 -14.2877 -3.99663
thorax 0.445268 -6.92627 4.28439
lowerneck -6.41602 22.4215 -1.17744e-005
upperneck 10.4159 32.2692 -13.6603
head 6.51565 14.7372 -1.31423
rclavicle -2.78299e-015 3.18055e-015
rhumerus 29.4447 -24.6905 -61.9517
rradius 106.725
rwrist -1.92271
rhand -61.583 26.9687
rfingers 7.12502
rthumb -33.6575 0.109538
lclavicle -2.78299e-015 3.18055e-015
lhumerus 112.875 -41.0201 43.7732
lradius 35.6249
lwrist -2.07081
lhand -23.2754 -1.06511
lfingers 7.12502
lthumb -176.823 -151.109
rfemur -26.9606 18.4936 24.0523
rtibia 28.2527
rfoot -3.00721 23.236
rtoes 27.5136
lfemur 0.445672 17.1053 3.62186
ltibia 31.7412
lfoot 15.5744 11.0642
ltoes -35.4505
